HIERARCHY
ROOT ui
{
	 OFFSET 0 0 0
	 CHANNELS 3 XPosition YPosition Z Position
	 EndSite
	 {
	 OFFSET 0 -1 0
	 }
}
ROOT li
{
	 OFFSET 0 0 0
	 CHANNELS 3 XPosition YPosition Z Position
	 EndSite
	 {
	 OFFSET 0 -1 0
	 }
}
ROOT ul
{
	 OFFSET 0 0 0
	 CHANNELS 3 XPosition YPosition Z Position
	 EndSite
	 {
	 OFFSET 0 -1 0
	 }
}
ROOT ll
{
	 OFFSET 0 0 0
	 CHANNELS 3 XPosition YPosition Z Position
	 EndSite
	 {
	 OFFSET 0 -1 0
	 }
}
ROOT tt
{
	 OFFSET 0 0 0
	 CHANNELS 3 XPosition YPosition Z Position
	 EndSite
	 {
	 OFFSET 0 -1 0
	 }
}
ROOT tb
{
	 OFFSET 0 0 0
	 CHANNELS 3 XPosition YPosition Z Position
	 EndSite
	 {
	 OFFSET 0 -1 0
	 }
}
ROOT td
{
	 OFFSET 0 0 0
	 CHANNELS 3 XPosition YPosition Z Position
	 EndSite
	 {
	 OFFSET 0 -1 0
	 }
}
ROOT v
{
	 OFFSET 0 0 0
	 CHANNELS 3 XPosition YPosition Z Position
	 EndSite
	 {
	 OFFSET 0 -1 0
	 }
}
ROOT bn
{
	 OFFSET 0 0 0
	 CHANNELS 3 XPosition YPosition Z Position
	 EndSite
	 {
	 OFFSET 0 -1 0
	 }
}
MOTION
Frames: 32
Frame Time: 0.002
0.0013033690452575683	-0.0012455209493637085	0		0.4742494812011719	-2.37470751953125	0		-1.0793594970703124	0.04952617645263672	0		-0.94334716796875	-2.313512939453125	0		1.2702515869140625	-0.7083880615234375	0		3.2909677734375	-0.337908203125	0		4.6562958984375	-0.16827908325195312	0		5.5383896484375	0.12994406127929686	0		-0.18918821716308593	5.91127685546875	0		
-0.014586455345153808	-0.007370981216430664	0		0.49932830810546874	-2.379137451171875	0		-1.0882557373046875	0.04237063598632813	0		-0.9842366333007813	-2.3134404296875	0		1.2424423828125	-0.7014512329101562	0		3.28113623046875	-0.33513909912109374	0		4.65644873046875	-0.16860397338867186	0		5.53854541015625	0.1295988006591797	0		-0.18991659545898437	5.912046875	0		
-0.0063701200485229495	-6.86191976070404E-4	0		0.47447808837890626	-2.37522412109375	0		-1.0630750732421874	0.04395336532592774	0		-0.971151611328125	-2.31877294921875	0		1.248551513671875	-0.70777587890625	0		3.27024560546875	-0.342380126953125	0		4.671650390625	-0.164055908203125	0		5.5327646484375	0.1362777557373047	0		-0.17257916259765624	5.919669921875	0		
0.028802183151245116	-0.002212126970291138	0		0.4875907897949219	-2.378599609375	0		-1.0628936767578125	0.043701412200927735	0		-0.9669868774414062	-2.3150556640625	0		1.2547689208984374	-0.701115966796875	0		3.29258544921875	-0.31987554931640627	0		4.67183056640625	-0.1644143829345703	0		5.542947265625	0.1358263702392578	0		-0.15721267700195313	5.9292919921875	0		
0.006020362854003906	6.693220138549805E-4	0		0.48081460571289064	-2.36884326171875	0		-1.063638916015625	0.05144344711303711	0		-0.9747618408203125	-2.3052646484375	0		1.2549515380859375	-0.7014246826171875	0		3.252703857421875	-0.32993173217773436	0		4.66292431640625	-0.17871798706054687	0		5.53314599609375	0.13550949096679688	0		-0.18804232788085937	5.9102353515625	0		
-0.002762428045272827	0.001439628005027771	0		0.47695208740234374	-2.373117919921875	0		-1.0734207763671875	0.05224052429199219	0		-0.9786304931640625	-2.3105126953125	0		1.2490975341796875	-0.7086987915039062	0		3.281863037109375	-0.33649722290039064	0		4.66614794921875	-0.17711631774902345	0		5.5352490234375	0.12009938049316406	0		-0.17363792419433594	5.92184130859375	0		
0.00242817497253418	-0.0028992810249328614	0		0.4751087951660156	-2.376414306640625	0		-1.073199951171875	0.051956676483154295	0		-0.90449658203125	-2.31733837890625	0		1.2653411865234374	-0.7041400756835937	0		3.255026611328125	-0.3436596374511719	0		4.66335302734375	-0.1794747314453125	0		5.529529296875	0.12774398040771484	0		-0.1883947448730469	5.91065185546875	0		
-0.0023165910243988035	8.298360109329223E-4	0		0.47529547119140625	-2.376729248046875	0		-1.0680098876953126	0.04663058853149414	0		-0.9703291625976562	-2.320147705078125	0		1.249519287109375	-0.7093510131835937	0		3.2952529296875	-0.34331341552734373	0		4.66357861328125	-0.1798556823730469	0		5.53380859375	0.13431597900390624	0		-0.17299127197265626	5.9212373046875	0		
-0.0020890209674835204	5.205309987068176E-4	0		0.47952288818359373	-2.372075439453125	0		-1.0618111572265625	0.042293842315673826	0		-0.968122802734375	-2.318456787109375	0		1.2527578125	-0.7067017822265625	0		3.269556640625	-0.33248324584960937	0		4.6619228515625	-0.16421971130371094	0		5.5340380859375	0.13392118835449218	0		-0.17267227172851562	5.9209306640625	0		
0.003106623888015747	-0.0038245489597320556	0		0.479714111328125	-2.372390869140625	0		-1.0684896240234374	0.055051654815673826	0		-0.9659161376953125	-2.31676611328125	0		1.252972900390625	-0.7070281372070313	0		3.302776123046875	-0.33308102416992186	0		4.6580966796875	-0.17156246948242188	0		5.54426513671875	0.13346000671386718	0		-0.17136973571777345	5.91961767578125	0		
-0.0016450079679489135	-9.243799746036529E-5	0		0.5048642272949219	-2.377885498046875	0		-1.0273375244140626	0.04545958709716797	0		-0.9037368774414063	-2.318514404296875	0		1.253182373046875	-0.7073491821289063	0		3.286990966796875	-0.33331124877929685	0		4.659197265625	-0.18793263244628905	0		5.54043408203125	0.12611212158203125	0		-0.18813876342773436	5.9104404296875	0		
-0.01036969757080078	0.008676322937011718	0		0.476045166015625	-2.377975341796875	0		-1.072090087890625	0.050506233215332035	0		-0.9795244750976563	-2.31424072265625	0		1.26639697265625	-0.705757568359375	0		3.279114990234375	-0.34458883666992185	0		4.6585234375	-0.17227664184570313	0		5.5346962890625	0.13279222106933594	0		-0.1878590545654297	5.9101455078125	0		
-0.0012408740520477295	-6.770330071449279E-4	0		0.4851554870605469	-2.386333984375	0		-1.06693115234375	0.04519381332397461	0		-0.9614727783203125	-2.330649658203125	0		1.25054833984375	-0.7109402465820313	0		3.250359130859375	-0.33769769287109375	0		4.66465234375	-0.1816562957763672	0		5.53489306640625	0.13244497680664064	0		-0.17053355407714843	5.918734375	0		
-0.0010607279539108277	-9.518899917602539E-4	0		0.4613651123046875	-2.37943603515625	0		-1.05575830078125	0.04384789276123047	0		-0.96521875	-2.31788623046875	0		1.2537437744140625	-0.7082493896484375	0		3.307600830078125	-0.32942550659179687	0		4.67886865234375	-0.17707772827148438	0		5.5401337890625	0.14007972717285155	0		-0.15423040771484375	5.9273427734375	0		
0.0031324288845062257	0.0027577118873596193	0		0.511566650390625	-2.372071044921875	0		-1.06155712890625	0.04864034652709961	0		-0.9650745849609375	-2.318138671875	0		1.2539014892578124	-0.7085206298828125	0		3.26768896484375	-0.33941757202148437	0		4.67306201171875	-0.1733317108154297	0		5.5452392578125	0.13173573303222658	0		-0.17107574462890626	5.91920947265625	0		
-7.509520053863525E-4	-0.0014574240446090698	0		0.478666748046875	-2.376074951171875	0		-1.0714029541015626	0.049477294921875	0		-0.968974853515625	-2.3223466796875	0		1.2700789794921874	-0.703893310546875	0		3.279787841796875	-0.3457750244140625	0		4.67320751953125	-0.17360919189453125	0		5.53538623046875	0.1315245361328125	0		-0.18696011352539063	5.90908447265625	0		
-6.2357097864151E-4	-0.001684885025024414	0		0.5037412719726563	-2.38149072265625	0		-1.0712752685546876	0.049256641387939455	0		-0.9818248291015625	-2.317471923828125	0		1.245187744140625	-0.705943359375	0		3.28586083984375	-0.3530676574707031	0		4.660216796875	-0.18976824951171875	0		5.5374033203125	0.1162474594116211	0		-0.18679515075683595	5.9088583984375	0		
-0.013471098899841308	0.004202959060668946	0		0.47887344360351564	-2.3765166015625	0		-1.06620458984375	0.04401714324951172	0		-0.9707823486328125	-2.32475634765625	0		1.27323876953125	-0.7133663940429688	0		3.275078125	-0.338213134765625	0		4.6653759765625	-0.18303878784179686	0		5.535623046875	0.1310226593017578	0		-0.17058096313476562	5.91853173828125	0		
-4.283530116081238E-4	-0.0020812780857086184	0		0.48990472412109376	-2.382788330078125	0		-1.061087158203125	0.047797130584716796	0		-0.9567285766601562	-2.32804345703125	0		1.2543531494140625	-0.7094194946289063	0		3.284149169921875	-0.3404836730957031	0		4.66546337890625	-0.183248291015625	0		5.53571142578125	0.1308079833984375	0		-0.171457275390625	5.91935205078125	0		
-0.009292205810546876	0.006819309234619141	0		0.4810234375	-2.374889892578125	0		-1.0610179443359375	0.047635555267333984	0		-0.88964892578125	-2.325703369140625	0		1.2704559326171876	-0.7047098388671875	0		3.284216552734375	-0.34066354370117186	0		4.6655322265625	-0.18343313598632813	0		5.53084765625	0.13965553283691406	0		-0.1373196563720703	5.92493408203125	0		
0.01676007080078125	0.0064826340675354	0		0.5060294799804688	-2.380220947265625	0		-1.07095703125	0.04857050323486328	0		-0.9685877685546875	-2.323256103515625	0		1.2454920654296875	-0.7066721801757813	0		3.284268310546875	-0.3408194580078125	0		4.65460009765625	-0.18151182556152343	0		5.53583447265625	0.13045414733886718	0		-0.18636917114257812	5.90815576171875	0		
-2.66853004693985E-4	-0.0025116989612579345	0		0.4770608825683594	-2.3801279296875	0		-1.03191845703125	0.0481634521484375	0		-0.8966258544921875	-2.33290869140625	0		1.2675208740234376	-0.70796142578125	0		3.280261962890625	-0.3469228210449219	0		4.66057275390625	-0.19069387817382813	0		5.53587451171875	0.13031240844726563	0		-0.18630747985839843	5.90803564453125	0		
-2.3913300037384032E-4	-0.0026112229824066164	0		0.4770789794921875	-2.3802294921875	0		-1.0659267578125	0.04332128524780274	0		-0.9606058349609375	-2.3325283203125	0		1.2515089111328126	-0.7129468383789063	0		3.286236083984375	-0.3540801086425781	0		4.66060009765625	-0.19081147766113282	0		5.53590234375	0.13019046020507813	0		-0.20522552490234375	5.912078125	0		
0.003807194948196411	0.001279670000076294	0		0.4900620422363281	-2.383407470703125	0		-1.054917724609375	0.04216507339477539	0		-0.9565701904296875	-2.328633056640625	0		1.2545445556640624	-0.7100542602539063	0		3.29242236328125	-0.33121969604492185	0		4.669720703125	-0.17697854614257813	0		5.5499716796875	0.13698143005371094	0		-0.1681604461669922	5.91472412109375	0		
0.00877552318572998	-0.0038172130584716796	0		0.48313006591796875	-2.37341796875	0		-1.0668369140625	0.05219997406005859	0		-0.9565765991210937	-2.328687744140625	0		1.248591552734375	-0.7040759887695313	0		3.28435205078125	-0.3412366943359375	0		4.66868896484375	-0.182053955078125	0		5.53592626953125	0.129997314453125	0		-0.17109403991699218	5.9186875	0		
-0.009155257225036621	0.0062758011817932126	0		0.47908059692382815	-2.377431640625	0		-1.0708721923828124	0.04819526290893555	0		-0.8946126708984375	-2.331185546875	0		1.2675511474609376	-0.7082657470703125	0		3.280299560546875	-0.34726681518554686	0		4.6826826171875	-0.18222543334960936	0		5.5459208984375	0.12984942626953125	0		-0.1861468505859375	5.907759765625	0		
-2.4114799499511718E-4	-0.002813781976699829	0		0.4790466613769531	-2.37745751953125	0		-1.070890380859375	0.04817950820922851	0		-0.9736217651367187	-2.32761279296875	0		1.267528076171875	-0.7082966918945313	0		3.28027880859375	-0.34731085205078127	0		4.6686640625	-0.18217279052734375	0		5.5359033203125	0.1298653106689453	0		-0.186126953125	5.90773828125	0		
-2.73160994052887E-4	-0.0028191099166870117	0		0.4769754638671875	-2.380451171875	0		-1.0709219970703125	0.0481817626953125	0		-0.9637302856445312	-2.335685791015625	0		1.2454991455078126	-0.7071466674804687	0		3.27530419921875	-0.3393022766113281	0		4.68856396484375	-0.19135893249511718	0		5.5458720703125	0.12974606323242188	0		-0.1710353546142578	5.9186220703125	0		
-0.009251311302185058	0.006259210109710693	0		0.45296487426757814	-2.373264404296875	0		-1.0550126953125	0.042081588745117186	0		-0.9607711791992187	-2.332689697265625	0		1.251403076171875	-0.7131895141601563	0		3.280196044921875	-0.3473528442382813	0		4.6685859375	-0.18223214721679687	0		5.53582763671875	0.12979034423828126	0		-0.17103646850585938	5.918634765625	0		
0.003652040958404541	0.0011890740394592285	0		0.5078558959960937	-2.377652587890625	0		-1.0669959716796875	0.052206394195556644	0		-0.960848388671875	-2.3326552734375	0		1.2484061279296874	-0.7041500854492188	0		3.28013427734375	-0.3473515625	0		4.6825263671875	-0.18234498596191406	0		5.54576953125	0.12969911193847655	0		-0.17104901123046876	5.9186630859375	0		
-4.4875198602676393E-4	-0.002739419937133789	0		0.4787667541503906	-2.377397705078125	0		-1.071096435546875	0.04828646087646484	0		-0.9249764404296875	-2.337875732421875	0		1.2672989501953125	-0.7082609252929688	0		3.28410546875	-0.34136648559570315	0		4.66845556640625	-0.1822344512939453	0		5.53569970703125	0.1297711639404297	0		-0.1710726318359375	5.91870556640625	0		
-0.009462383270263672	0.006382112979888916	0		0.5036280517578124	-2.382534912109375	0		-1.0711773681640624	0.048349319458007814	0		-0.97601513671875	-2.329431640625	0		1.2641820068359375	-0.7121942138671875	0		3.2799765625	-0.34730844116210935	0		4.68237353515625	-0.18232113647460937	0		5.5315673828125	0.1228111572265625	0		-0.18618858337402344	5.9078740234375	0		
